<mxfile host="app.diagrams.net" modified="2024-12-02T19:54:50.543Z" agent="Mozilla/5.0 (Windows NT 10.0; Win64; x64) AppleWebKit/537.36 (KHTML, like Gecko) Chrome/131.0.0.0 Safari/537.36" etag="Az8YvnfCJMnHxBFVcjFk" version="24.6.4" type="device">
  <diagram name="第 1 页" id="pBowmC0NVk2Y1iEA9DQJ">
    <mxGraphModel dx="893" dy="463" grid="1" gridSize="10" guides="1" tooltips="1" connect="1" arrows="1" fold="1" page="1" pageScale="1" pageWidth="827" pageHeight="1169" math="0" shadow="0">
      <root>
        <mxCell id="0" />
        <mxCell id="1" parent="0" />
        <mxCell id="fvYOiKziCxRIJCdNHWz4-13" value="" style="endArrow=none;html=1;rounded=0;" edge="1" parent="1">
          <mxGeometry width="50" height="50" relative="1" as="geometry">
            <mxPoint x="220" y="820" as="sourcePoint" />
            <mxPoint x="410" y="600" as="targetPoint" />
          </mxGeometry>
        </mxCell>
        <mxCell id="fvYOiKziCxRIJCdNHWz4-14" value="" style="endArrow=none;html=1;rounded=0;" edge="1" parent="1">
          <mxGeometry width="50" height="50" relative="1" as="geometry">
            <mxPoint x="460" y="820" as="sourcePoint" />
            <mxPoint x="270" y="600" as="targetPoint" />
          </mxGeometry>
        </mxCell>
        <mxCell id="fvYOiKziCxRIJCdNHWz4-15" value="" style="endArrow=none;html=1;rounded=0;" edge="1" parent="1">
          <mxGeometry width="50" height="50" relative="1" as="geometry">
            <mxPoint x="200" y="760" as="sourcePoint" />
            <mxPoint x="480" y="760" as="targetPoint" />
          </mxGeometry>
        </mxCell>
        <mxCell id="fvYOiKziCxRIJCdNHWz4-16" value="Class 1" style="text;html=1;align=center;verticalAlign=middle;whiteSpace=wrap;rounded=0;" vertex="1" parent="1">
          <mxGeometry x="400" y="600" width="60" height="30" as="geometry" />
        </mxCell>
        <mxCell id="fvYOiKziCxRIJCdNHWz4-17" value="Class 2" style="text;html=1;align=center;verticalAlign=middle;whiteSpace=wrap;rounded=0;" vertex="1" parent="1">
          <mxGeometry x="350" y="585" width="60" height="30" as="geometry" />
        </mxCell>
        <mxCell id="fvYOiKziCxRIJCdNHWz4-19" value="Class 1" style="text;html=1;align=center;verticalAlign=middle;whiteSpace=wrap;rounded=0;" vertex="1" parent="1">
          <mxGeometry x="270" y="590" width="60" height="30" as="geometry" />
        </mxCell>
        <mxCell id="fvYOiKziCxRIJCdNHWz4-20" value="Class 3" style="text;html=1;align=center;verticalAlign=middle;whiteSpace=wrap;rounded=0;" vertex="1" parent="1">
          <mxGeometry x="230" y="610" width="60" height="30" as="geometry" />
        </mxCell>
        <mxCell id="fvYOiKziCxRIJCdNHWz4-21" value="Class 2" style="text;html=1;align=center;verticalAlign=middle;whiteSpace=wrap;rounded=0;" vertex="1" parent="1">
          <mxGeometry x="430" y="730" width="60" height="30" as="geometry" />
        </mxCell>
        <mxCell id="fvYOiKziCxRIJCdNHWz4-22" value="Class 3" style="text;html=1;align=center;verticalAlign=middle;whiteSpace=wrap;rounded=0;" vertex="1" parent="1">
          <mxGeometry x="430" y="760" width="60" height="30" as="geometry" />
        </mxCell>
        <mxCell id="fvYOiKziCxRIJCdNHWz4-23" value="Class 2" style="text;html=1;align=center;verticalAlign=middle;whiteSpace=wrap;rounded=0;fillColor=#647687;strokeColor=#314354;fontColor=#ffffff;" vertex="1" parent="1">
          <mxGeometry x="310" y="615" width="60" height="25" as="geometry" />
        </mxCell>
        <mxCell id="fvYOiKziCxRIJCdNHWz4-25" value="Class 2" style="text;html=1;align=center;verticalAlign=middle;whiteSpace=wrap;rounded=0;fillColor=#647687;strokeColor=#314354;fontColor=#ffffff;" vertex="1" parent="1">
          <mxGeometry x="240" y="680" width="60" height="25" as="geometry" />
        </mxCell>
        <mxCell id="fvYOiKziCxRIJCdNHWz4-26" value="Class 1" style="text;html=1;align=center;verticalAlign=middle;whiteSpace=wrap;rounded=0;fillColor=#fff2cc;strokeColor=#d6b656;" vertex="1" parent="1">
          <mxGeometry x="390" y="680" width="60" height="25" as="geometry" />
        </mxCell>
        <mxCell id="fvYOiKziCxRIJCdNHWz4-28" value="Class 1" style="text;html=1;align=center;verticalAlign=middle;whiteSpace=wrap;rounded=0;fillColor=#fff2cc;strokeColor=#d6b656;" vertex="1" parent="1">
          <mxGeometry x="460" y="790" width="60" height="25" as="geometry" />
        </mxCell>
        <mxCell id="fvYOiKziCxRIJCdNHWz4-29" value="Class 3" style="text;html=1;align=center;verticalAlign=middle;whiteSpace=wrap;rounded=0;fillColor=#dae8fc;strokeColor=#6c8ebf;" vertex="1" parent="1">
          <mxGeometry x="310" y="790" width="60" height="25" as="geometry" />
        </mxCell>
        <mxCell id="fvYOiKziCxRIJCdNHWz4-30" value="Class 3" style="text;html=1;align=center;verticalAlign=middle;whiteSpace=wrap;rounded=0;fillColor=#dae8fc;strokeColor=#6c8ebf;" vertex="1" parent="1">
          <mxGeometry x="170" y="770" width="60" height="25" as="geometry" />
        </mxCell>
        <mxCell id="fvYOiKziCxRIJCdNHWz4-31" value="???" style="text;html=1;align=center;verticalAlign=middle;whiteSpace=wrap;rounded=0;fillColor=#f8cecc;strokeColor=#b85450;" vertex="1" parent="1">
          <mxGeometry x="310" y="720" width="60" height="30" as="geometry" />
        </mxCell>
      </root>
    </mxGraphModel>
  </diagram>
</mxfile>
